{
  "accessors": [
    {
      "bufferView": 2,
      "componentType": 5126,
      "count": 1866,
      "max": [
        48.106937408447266,
        15.028410911560059,
        88.9092025756836
      ],
      "min": [
        -46.26340103149414,
        -13.063783645629883,
        3.9784889221191406
      ],
      "type": "VEC3"
    },
    {
      "bufferView": 2,
      "byteOffset": 22392,
      "componentType": 5126,
      "count": 1866,
      "max": [
        0.9994128942489624,
        0.9992132186889648,
        0.9987394213676453
      ],
      "min": [
        -0.9999905228614807,
        -0.999716579914093,
        -0.9893993139266968
      ],
      "type": "VEC3"
    },
    {
      "bufferView": 1,
      "componentType": 5126,
      "count": 1866,
      "max": [
        0.9951000213623047,
        0.9847000241279602
      ],
      "min": [
        0.01679999940097332,
        0.019700000062584877
      ],
      "type": "VEC2"
    },
    {
      "bufferView": 0,
      "componentType": 5125,
      "count": 8982,
      "type": "SCALAR"
    },
    {
      "bufferView": 2,
      "byteOffset": 44784,
      "componentType": 5126,
      "count": 1032,
      "max": [
        20.053714752197266,
        8.806940078735352,
        99.52244567871094
      ],
      "min": [
        -22.128694534301758,
        -13.49567985534668,
        77.57061767578125
      ],
      "type": "VEC3"
    },
    {
      "bufferView": 2,
      "byteOffset": 57168,
      "componentType": 5126,
      "count": 1032,
      "max": [
        0.9987298250198364,
        0.9990488290786743,
        0.9990353584289551
      ],
      "min": [
        -0.9987300038337708,
        -0.9999972581863403,
        -0.9984859824180603
      ],
      "type": "VEC3"
    },
    {
      "bufferView": 1,
      "byteOffset": 14928,
      "componentType": 5126,
      "count": 1032,
      "max": [
        0.9965389966964722,
        0.9917529821395874
      ],
      "min": [
        0.006490999832749367,
        0.0026420000940561295
      ],
      "type": "VEC2"
    },
    {
      "bufferView": 0,
      "byteOffset": 35928,
      "componentType": 5125,
      "count": 4254,
      "type": "SCALAR"
    }
  ],
  "asset": {
    "extras": {
      "author": "Kirifuki (https://sketchfab.com/Kirifuki)",
      "license": "CC-BY-4.0 (http://creativecommons.org/licenses/by/4.0/)",
      "source": "https://sketchfab.com/3d-models/buff-yoda-clone-wars-style-video-included-3500458440fa4c16af6388aecdd4dccb",
      "title": "Buff Yoda (Clone Wars style, Video included)"
    },
    "generator": "Sketchfab-15.18.0",
    "version": "2.0"
  },
  "bufferViews": [
    {
      "buffer": 0,
      "byteLength": 52944,
      "name": "floatBufferViews",
      "target": 34963
    },
    {
      "buffer": 0,
      "byteLength": 23184,
      "byteOffset": 52944,
      "byteStride": 8,
      "name": "floatBufferViews",
      "target": 34962
    },
    {
      "buffer": 0,
      "byteLength": 69552,
      "byteOffset": 76128,
      "byteStride": 12,
      "name": "floatBufferViews",
      "target": 34962
    }
  ],
  "buffers": [
    {
      "byteLength": 145680,
      "uri": "scene.bin"
    }
  ],
  "images": [
    {
      "uri": "textures/material_42_baseColor.png"
    },
    {
      "uri": "textures/head_baseColor.png"
    }
  ],
  "materials": [
    {
      "doubleSided": true,
      "name": "material_42",
      "pbrMetallicRoughness": {
        "baseColorTexture": {
          "index": 0
        },
        "metallicFactor": 0.0,
        "roughnessFactor": 0.6
      }
    },
    {
      "doubleSided": true,
      "name": "head",
      "pbrMetallicRoughness": {
        "baseColorTexture": {
          "index": 1
        },
        "metallicFactor": 0.0,
        "roughnessFactor": 0.6
      }
    }
  ],
  "meshes": [
    {
      "name": "yodahulk35_hulk2005radgames_reference_material_42_0",
      "primitives": [
        {
          "attributes": {
            "NORMAL": 1,
            "POSITION": 0,
            "TEXCOORD_0": 2
          },
          "indices": 3,
          "material": 0,
          "mode": 4
        }
      ]
    },
    {
      "name": "yodahulk35_hulk2005radgames_reference_head_0",
      "primitives": [
        {
          "attributes": {
            "NORMAL": 5,
            "POSITION": 4,
            "TEXCOORD_0": 6
          },
          "indices": 7,
          "material": 1,
          "mode": 4
        }
      ]
    }
  ],
  "nodes": [
    {
      "children": [
        1
      ],
      "matrix": [
        1.0,
        0.0,
        0.0,
        0.0,
        0.0,
        2.220446049250313e-16,
        -1.0,
        0.0,
        0.0,
        1.0,
        2.220446049250313e-16,
        0.0,
        0.0,
        0.0,
        0.0,
        1.0
      ],
      "name": "Sketchfab_model"
    },
    {
      "children": [
        2
      ],
      "matrix": [
        1.0,
        0.0,
        0.0,
        0.0,
        0.0,
        0.0,
        1.0,
        0.0,
        0.0,
        -1.0,
        0.0,
        0.0,
        0.0,
        0.0,
        0.0,
        1.0
      ],
      "name": "5f7fb6698d364d939aac579438c292fc.fbx"
    },
    {
      "children": [
        3
      ],
      "name": "RootNode"
    },
    {
      "children": [
        4,
        5
      ],
      "matrix": [
        1.0,
        0.0,
        0.0,
        0.0,
        0.0,
        -1.629206702880026e-07,
        -0.9999999999999868,
        0.0,
        0.0,
        0.9999999999999868,
        -1.629206702880026e-07,
        0.0,
        0.0,
        0.0,
        0.0,
        1.0
      ],
      "name": "yodahulk35_hulk2005radgames_reference"
    },
    {
      "mesh": 0,
      "name": "yodahulk35_hulk2005radgames_reference_material_42_0"
    },
    {
      "mesh": 1,
      "name": "yodahulk35_hulk2005radgames_reference_head_0"
    }
  ],
  "samplers": [
    {
      "magFilter": 9729,
      "minFilter": 9987,
      "wrapS": 10497,
      "wrapT": 10497
    }
  ],
  "scene": 0,
  "scenes": [
    {
      "name": "Sketchfab_Scene",
      "nodes": [
        0
      ]
    }
  ],
  "textures": [
    {
      "sampler": 0,
      "source": 0
    },
    {
      "sampler": 0,
      "source": 1
    }
  ]
}
