{
    "asset" : {
        "generator" : "Khronos glTF Blender I/O v1.6.16",
        "version" : "2.0"
    },
    "scene" : 0,
    "scenes" : [
        {
            "name" : "Scene",
            "nodes" : [
                8,
                9,
                10
            ]
        }
    ],
    "nodes" : [
        {
            "name" : "Circle_5.001",
            "rotation" : [
                0,
                0,
                0.7071068286895752,
                0.7071068286895752
            ]
        },
        {
            "children" : [
                0
            ],
            "name" : "Circle.001_6.001",
            "rotation" : [
                -0.49846500158309937,
                -0.49846506118774414,
                -0.5015302896499634,
                0.5015302896499634
            ],
            "translation" : [
                0,
                -9.017528533935547,
                0
            ]
        },
        {
            "name" : "Cylinder.001_3.001",
            "scale" : [
                1.0980851650238037,
                0.4520604610443115,
                1.0980851650238037
            ],
            "translation" : [
                0,
                1.426313042640686,
                0
            ]
        },
        {
            "mesh" : 0,
            "name" : "Object_6.001"
        },
        {
            "children" : [
                3
            ],
            "name" : "Cylinder_2",
            "scale" : [
                0.19844456017017365,
                0.01736767590045929,
                0.19844456017017365
            ],
            "translation" : [
                0,
                1.876777172088623,
                0
            ]
        },
        {
            "children" : [
                2,
                4
            ],
            "name" : "Cylinder.002_4.001",
            "scale" : [
                0.3971846103668213,
                5.73104190826416,
                0.3971846103668213
            ],
            "translation" : [
                0,
                -3.613541841506958,
                0
            ]
        },
        {
            "children" : [
                1,
                5
            ],
            "name" : "GLTF_SceneRootNode.001",
            "rotation" : [
                0.7071068286895752,
                0,
                0,
                0.7071068286895752
            ]
        },
        {
            "children" : [
                6
            ],
            "name" : "root.001"
        },
        {
            "children" : [
                7
            ],
            "name" : "Sketchfab_model.001",
            "rotation" : [
                -0.7071068286895752,
                0,
                0,
                0.7071068286895752
            ]
        },
        {
            "name" : "Camera.001",
            "rotation" : [
                0.7071068286895752,
                0,
                0,
                0.7071068286895752
            ],
            "translation" : [
                0,
                1,
                10
            ]
        },
        {
            "name" : "Camera",
            "rotation" : [
                0.7071068286895752,
                0,
                0,
                0.7071068286895752
            ],
            "translation" : [
                0,
                1,
                10
            ]
        }
    ],
    "materials" : [
        {
            "doubleSided" : true,
            "name" : "Material.008",
            "pbrMetallicRoughness" : {
                "baseColorFactor" : [
                    0.4236389994621277,
                    0.281372994184494,
                    0.09648740291595459,
                    1
                ],
                "roughnessFactor" : 0.5163639783859253
            }
        },
        {
            "doubleSided" : true,
            "name" : "Material.007",
            "pbrMetallicRoughness" : {
                "baseColorFactor" : [
                    0,
                    0,
                    0,
                    1
                ],
                "metallicFactor" : 0,
                "roughnessFactor" : 0.5
            }
        },
        {
            "doubleSided" : true,
            "name" : "Material.009",
            "pbrMetallicRoughness" : {
                "baseColorFactor" : [
                    0.800000011920929,
                    0.0017907100263983011,
                    0,
                    1
                ],
                "metallicFactor" : 0.1599999964237213,
                "roughnessFactor" : 0
            }
        }
    ],
    "meshes" : [
        {
            "name" : "Object_1.001",
            "primitives" : [
                {
                    "attributes" : {
                        "POSITION" : 0,
                        "NORMAL" : 1,
                        "TEXCOORD_0" : 2
                    },
                    "indices" : 3,
                    "material" : 0
                },
                {
                    "attributes" : {
                        "POSITION" : 4,
                        "NORMAL" : 5,
                        "TEXCOORD_0" : 6
                    },
                    "indices" : 7,
                    "material" : 1
                },
                {
                    "attributes" : {
                        "POSITION" : 8,
                        "NORMAL" : 9,
                        "TEXCOORD_0" : 10
                    },
                    "indices" : 11,
                    "material" : 2
                }
            ]
        }
    ],
    "accessors" : [
        {
            "bufferView" : 0,
            "componentType" : 5126,
            "count" : 552,
            "max" : [
                6.0148420333862305,
                23.33925437927246,
                6.181331634521484
            ],
            "min" : [
                -5.999457359313965,
                -52.77409362792969,
                -6.241762638092041
            ],
            "type" : "VEC3"
        },
        {
            "bufferView" : 1,
            "componentType" : 5126,
            "count" : 552,
            "type" : "VEC3"
        },
        {
            "bufferView" : 2,
            "componentType" : 5126,
            "count" : 552,
            "type" : "VEC2"
        },
        {
            "bufferView" : 3,
            "componentType" : 5123,
            "count" : 552,
            "type" : "SCALAR"
        },
        {
            "bufferView" : 4,
            "componentType" : 5126,
            "count" : 84,
            "max" : [
                5.142706871032715,
                -50.375953674316406,
                5.140259742736816
            ],
            "min" : [
                -5.212445259094238,
                -155.12661743164062,
                -5.829507827758789
            ],
            "type" : "VEC3"
        },
        {
            "bufferView" : 5,
            "componentType" : 5126,
            "count" : 84,
            "type" : "VEC3"
        },
        {
            "bufferView" : 6,
            "componentType" : 5126,
            "count" : 84,
            "type" : "VEC2"
        },
        {
            "bufferView" : 7,
            "componentType" : 5123,
            "count" : 132,
            "type" : "SCALAR"
        },
        {
            "bufferView" : 8,
            "componentType" : 5126,
            "count" : 24,
            "max" : [
                19.810840606689453,
                -138.6102294921875,
                19.80538558959961
            ],
            "min" : [
                -19.7972469329834,
                -173.35513305664062,
                -19.748647689819336
            ],
            "type" : "VEC3"
        },
        {
            "bufferView" : 9,
            "componentType" : 5126,
            "count" : 24,
            "type" : "VEC3"
        },
        {
            "bufferView" : 10,
            "componentType" : 5126,
            "count" : 24,
            "type" : "VEC2"
        },
        {
            "bufferView" : 11,
            "componentType" : 5123,
            "count" : 24,
            "type" : "SCALAR"
        }
    ],
    "bufferViews" : [
        {
            "buffer" : 0,
            "byteLength" : 6624,
            "byteOffset" : 0
        },
        {
            "buffer" : 0,
            "byteLength" : 6624,
            "byteOffset" : 6624
        },
        {
            "buffer" : 0,
            "byteLength" : 4416,
            "byteOffset" : 13248
        },
        {
            "buffer" : 0,
            "byteLength" : 1104,
            "byteOffset" : 17664
        },
        {
            "buffer" : 0,
            "byteLength" : 1008,
            "byteOffset" : 18768
        },
        {
            "buffer" : 0,
            "byteLength" : 1008,
            "byteOffset" : 19776
        },
        {
            "buffer" : 0,
            "byteLength" : 672,
            "byteOffset" : 20784
        },
        {
            "buffer" : 0,
            "byteLength" : 264,
            "byteOffset" : 21456
        },
        {
            "buffer" : 0,
            "byteLength" : 288,
            "byteOffset" : 21720
        },
        {
            "buffer" : 0,
            "byteLength" : 288,
            "byteOffset" : 22008
        },
        {
            "buffer" : 0,
            "byteLength" : 192,
            "byteOffset" : 22296
        },
        {
            "buffer" : 0,
            "byteLength" : 48,
            "byteOffset" : 22488
        }
    ],
    "buffers" : [
        {
            "byteLength" : 22536,
            "uri" : "data:application/octet-stream;base64,"
        }
    ]
}
