{
    "asset" : {
        "generator" : "Khronos glTF Blender I/O v3.4.50",
        "version" : "2.0"
    },
    "scene" : 0,
    "scenes" : [
        {
            "name" : "Scene",
            "nodes" : [
                12
            ]
        }
    ],
    "nodes" : [
        {
            "mesh" : 0,
            "name" : "Object_12"
        },
        {
            "children" : [
                0
            ],
            "name" : "Circle_5",
            "rotation" : [
                0,
                0,
                0.7071068286895752,
                0.7071067094802856
            ]
        },
        {
            "mesh" : 1,
            "name" : "Object_10"
        },
        {
            "children" : [
                1,
                2
            ],
            "name" : "Circle.001_6",
            "rotation" : [
                -0.49846500158309937,
                -0.49846506118774414,
                -0.5015303492546082,
                0.5015301704406738
            ],
            "translation" : [
                0,
                -9.017528533935547,
                0
            ]
        },
        {
            "mesh" : 2,
            "name" : "Object_8"
        },
        {
            "children" : [
                4
            ],
            "name" : "Cylinder.001_3",
            "scale" : [
                1.0980851650238037,
                0.4520604610443115,
                1.0980851650238037
            ],
            "translation" : [
                0,
                1.4263134002685547,
                0
            ]
        },
        {
            "mesh" : 3,
            "name" : "Object_6",
            "translation" : [
                0,
                3.814697265625e-06,
                0
            ]
        },
        {
            "children" : [
                6
            ],
            "name" : "Cylinder_2",
            "scale" : [
                0.19844456017017365,
                0.01736767590045929,
                0.19844454526901245
            ],
            "translation" : [
                0,
                1.876777172088623,
                0
            ]
        },
        {
            "mesh" : 4,
            "name" : "Object_4"
        },
        {
            "children" : [
                5,
                7,
                8
            ],
            "name" : "Cylinder.002_4",
            "scale" : [
                0.3971846103668213,
                5.73104190826416,
                0.3971846103668213
            ],
            "translation" : [
                0,
                -3.613541603088379,
                0
            ]
        },
        {
            "children" : [
                3,
                9
            ],
            "name" : "GLTF_SceneRootNode",
            "rotation" : [
                0.70710688829422,
                0,
                0,
                0.7071066498756409
            ]
        },
        {
            "children" : [
                10
            ],
            "name" : "root"
        },
        {
            "children" : [
                11
            ],
            "name" : "Sketchfab_model",
            "rotation" : [
                -0.70710688829422,
                0,
                0,
                0.7071066498756409
            ],
            "translation" : [
                0,
                -1.804157018661499,
                0
            ]
        }
    ],
    "materials" : [
        {
            "doubleSided" : true,
            "name" : "Material.005",
            "pbrMetallicRoughness" : {
                "baseColorFactor" : [
                    0.800000011920929,
                    0.0017907100263983011,
                    0,
                    1
                ],
                "metallicFactor" : 0.1599999964237213,
                "roughnessFactor" : 0
            }
        },
        {
            "doubleSided" : true,
            "name" : "Material.007",
            "pbrMetallicRoughness" : {
                "baseColorFactor" : [
                    0.4236389994621277,
                    0.281372994184494,
                    0.09648740291595459,
                    1
                ],
                "roughnessFactor" : 0.5163639783859253
            }
        },
        {
            "doubleSided" : true,
            "name" : "Material.008",
            "pbrMetallicRoughness" : {
                "baseColorFactor" : [
                    0,
                    0,
                    0,
                    1
                ],
                "metallicFactor" : 0,
                "roughnessFactor" : 0.5
            }
        }
    ],
    "meshes" : [
        {
            "name" : "Object_4.001",
            "primitives" : [
                {
                    "attributes" : {
                        "POSITION" : 0,
                        "TEXCOORD_0" : 1,
                        "NORMAL" : 2
                    },
                    "indices" : 3,
                    "material" : 0
                }
            ]
        },
        {
            "name" : "Object_3.001",
            "primitives" : [
                {
                    "attributes" : {
                        "POSITION" : 4,
                        "TEXCOORD_0" : 5,
                        "NORMAL" : 6
                    },
                    "indices" : 3,
                    "material" : 0
                }
            ]
        },
        {
            "name" : "Object_2.001",
            "primitives" : [
                {
                    "attributes" : {
                        "POSITION" : 7,
                        "TEXCOORD_0" : 8,
                        "NORMAL" : 9
                    },
                    "indices" : 10,
                    "material" : 1
                }
            ]
        },
        {
            "name" : "Object_1.001",
            "primitives" : [
                {
                    "attributes" : {
                        "POSITION" : 11,
                        "TEXCOORD_0" : 12,
                        "NORMAL" : 13
                    },
                    "indices" : 14,
                    "material" : 1
                }
            ]
        },
        {
            "name" : "Object_0.001",
            "primitives" : [
                {
                    "attributes" : {
                        "POSITION" : 15,
                        "TEXCOORD_0" : 16,
                        "NORMAL" : 17
                    },
                    "indices" : 18,
                    "material" : 2
                }
            ]
        }
    ],
    "accessors" : [
        {
            "bufferView" : 0,
            "componentType" : 5126,
            "count" : 816,
            "max" : [
                1.563295602798462,
                1.6818482606595353e-08,
                2.3391058444976807
            ],
            "min" : [
                -1.563295602798462,
                0,
                -1
            ],
            "type" : "VEC3"
        },
        {
            "bufferView" : 1,
            "componentType" : 5126,
            "count" : 816,
            "type" : "VEC2"
        },
        {
            "bufferView" : 2,
            "componentType" : 5126,
            "count" : 816,
            "type" : "VEC3"
        },
        {
            "bufferView" : 3,
            "componentType" : 5123,
            "count" : 816,
            "type" : "SCALAR"
        },
        {
            "bufferView" : 4,
            "componentType" : 5126,
            "count" : 816,
            "max" : [
                1.563295602798462,
                1.6818482606595353e-08,
                2.3391058444976807
            ],
            "min" : [
                -1.563295602798462,
                0,
                -1
            ],
            "type" : "VEC3"
        },
        {
            "bufferView" : 5,
            "componentType" : 5126,
            "count" : 816,
            "type" : "VEC2"
        },
        {
            "bufferView" : 6,
            "componentType" : 5126,
            "count" : 816,
            "type" : "VEC3"
        },
        {
            "bufferView" : 7,
            "componentType" : 5126,
            "count" : 19309,
            "max" : [
                1.1044739484786987,
                1,
                1.1044739484786987
            ],
            "min" : [
                -1.1044739484786987,
                -1,
                -1.1044739484786987
            ],
            "type" : "VEC3"
        },
        {
            "bufferView" : 8,
            "componentType" : 5126,
            "count" : 19309,
            "type" : "VEC2"
        },
        {
            "bufferView" : 9,
            "componentType" : 5126,
            "count" : 19309,
            "type" : "VEC3"
        },
        {
            "bufferView" : 10,
            "componentType" : 5123,
            "count" : 47616,
            "type" : "SCALAR"
        },
        {
            "bufferView" : 11,
            "componentType" : 5126,
            "count" : 2820,
            "max" : [
                1.0000001192092896,
                23.339252471923828,
                1.0000001192092896
            ],
            "min" : [
                -1.0000001192092896,
                -4.102331638336182,
                -1.0000001192092896
            ],
            "type" : "VEC3"
        },
        {
            "bufferView" : 12,
            "componentType" : 5126,
            "count" : 2820,
            "type" : "VEC2"
        },
        {
            "bufferView" : 13,
            "componentType" : 5126,
            "count" : 2820,
            "type" : "VEC3"
        },
        {
            "bufferView" : 14,
            "componentType" : 5123,
            "count" : 5376,
            "type" : "SCALAR"
        },
        {
            "bufferView" : 15,
            "componentType" : 5126,
            "count" : 685,
            "max" : [
                1,
                1,
                1
            ],
            "min" : [
                -1,
                -0.7963491678237915,
                -1
            ],
            "type" : "VEC3"
        },
        {
            "bufferView" : 16,
            "componentType" : 5126,
            "count" : 685,
            "type" : "VEC2"
        },
        {
            "bufferView" : 17,
            "componentType" : 5126,
            "count" : 685,
            "type" : "VEC3"
        },
        {
            "bufferView" : 18,
            "componentType" : 5123,
            "count" : 2079,
            "type" : "SCALAR"
        }
    ],
    "bufferViews" : [
        {
            "buffer" : 0,
            "byteLength" : 9792,
            "byteOffset" : 0,
            "target" : 34962
        },
        {
            "buffer" : 0,
            "byteLength" : 6528,
            "byteOffset" : 9792,
            "target" : 34962
        },
        {
            "buffer" : 0,
            "byteLength" : 9792,
            "byteOffset" : 16320,
            "target" : 34962
        },
        {
            "buffer" : 0,
            "byteLength" : 1632,
            "byteOffset" : 26112,
            "target" : 34963
        },
        {
            "buffer" : 0,
            "byteLength" : 9792,
            "byteOffset" : 27744,
            "target" : 34962
        },
        {
            "buffer" : 0,
            "byteLength" : 6528,
            "byteOffset" : 37536,
            "target" : 34962
        },
        {
            "buffer" : 0,
            "byteLength" : 9792,
            "byteOffset" : 44064,
            "target" : 34962
        },
        {
            "buffer" : 0,
            "byteLength" : 231708,
            "byteOffset" : 53856,
            "target" : 34962
        },
        {
            "buffer" : 0,
            "byteLength" : 154472,
            "byteOffset" : 285564,
            "target" : 34962
        },
        {
            "buffer" : 0,
            "byteLength" : 231708,
            "byteOffset" : 440036,
            "target" : 34962
        },
        {
            "buffer" : 0,
            "byteLength" : 95232,
            "byteOffset" : 671744,
            "target" : 34963
        },
        {
            "buffer" : 0,
            "byteLength" : 33840,
            "byteOffset" : 766976,
            "target" : 34962
        },
        {
            "buffer" : 0,
            "byteLength" : 22560,
            "byteOffset" : 800816,
            "target" : 34962
        },
        {
            "buffer" : 0,
            "byteLength" : 33840,
            "byteOffset" : 823376,
            "target" : 34962
        },
        {
            "buffer" : 0,
            "byteLength" : 10752,
            "byteOffset" : 857216,
            "target" : 34963
        },
        {
            "buffer" : 0,
            "byteLength" : 8220,
            "byteOffset" : 867968,
            "target" : 34962
        },
        {
            "buffer" : 0,
            "byteLength" : 5480,
            "byteOffset" : 876188,
            "target" : 34962
        },
        {
            "buffer" : 0,
            "byteLength" : 8220,
            "byteOffset" : 881668,
            "target" : 34962
        },
        {
            "buffer" : 0,
            "byteLength" : 4158,
            "byteOffset" : 889888,
            "target" : 34963
        }
    ],
    "buffers" : [
        {
            "byteLength" : 894048,
            "uri" : "data:application/octet-stream;base64,"
        }
    ]
}
